# xmcd CD database file
#
# Track frame offsets:
#	150
#	22125
#	48375
#
# Disc length: 935 seconds
#
# Revision: 0
# Processed by: cddbd v1.5PL3 Copyright (c) Steve Scherf et al.
# Submitted via: CDex 1.51
#
DISCID=2103a503
DTITLE=CHAGE - トウキョータワー
DYEAR=1998
DGENRE=JPop
TTITLE0=トウキョータワー
TTITLE1=undo
TTITLE2=トウキョータワー (instrumental)
EXTD=YEAR: 1998
EXTT0=
EXTT1=
EXTT2=
PLAYORDER=
